<svg width="224" height="32" viewBox="0 0 224 32" fill="none" xmlns="http://www.w3.org/2000/svg">
<path d="M35.75 16.0001C35.75 12.3575 38.5456 9.75122 42.3088 9.75122C44.3986 9.75122 46.1407 10.5121 47.2803 11.8927L45.4866 13.5488C44.674 12.6157 43.6549 12.1337 42.4465 12.1337C40.1845 12.1337 38.5801 13.7209 38.5801 16.0001C38.5801 18.2793 40.1845 19.8665 42.4465 19.8665C43.6549 19.8665 44.674 19.3845 45.4866 18.4342L47.2803 20.0903C46.1407 21.4881 44.3986 22.249 42.2915 22.249C38.5456 22.249 35.75 19.6427 35.75 16.0001Z" fill="#3D3838"/>
<path d="M56.8792 19.4533H51.2673L50.1965 22.0424H47.332L52.7167 9.95776H55.478L60.8799 22.0424H57.9465L56.8758 19.4533H56.8792ZM55.9978 17.329L54.0801 12.7018L52.1659 17.329H55.9978Z" fill="#3D3838"/>
<path d="M69.839 22.0424L67.5081 18.6752H64.9363V22.0424H62.1406V9.95776H67.3704C70.5999 9.95776 72.6174 11.631 72.6174 14.344C72.6174 16.155 71.7016 17.4874 70.1316 18.1588L72.8412 22.0424H69.839ZM67.2155 12.237H64.9363V16.4477H67.2155C68.9232 16.4477 69.7873 15.6523 69.7873 14.3406C69.7873 13.0288 68.9232 12.2335 67.2155 12.2335V12.237Z" fill="#3D3838"/>
<path d="M74.8242 9.95776H80.3157C84.2681 9.95776 86.9777 12.3403 86.9777 16.0001C86.9777 19.6599 84.2681 22.0424 80.3157 22.0424H74.8242V9.95776ZM80.178 19.746C82.5777 19.746 84.1476 18.3137 84.1476 16.0001C84.1476 13.6864 82.5777 12.2542 80.178 12.2542H77.6233V19.746H80.178Z" fill="#3D3838"/>
<path d="M96.8641 19.4533H91.2556L90.1848 22.0424H87.3203L92.705 9.95776H95.4662L100.868 22.0424H97.9348L96.8641 19.4533ZM95.9861 17.329L94.0684 12.7018L92.1542 17.329H95.9861Z" fill="#3D3838"/>
<path d="M113.208 9.95776V22.0424H110.911L104.886 14.7055V22.0424H102.125V9.95776H104.439L110.447 17.2946V9.95776H113.208Z" fill="#3D3838"/>
<path d="M115.309 16.0001C115.309 12.4091 118.104 9.75122 121.919 9.75122C125.734 9.75122 128.529 12.3919 128.529 16.0001C128.529 19.6083 125.717 22.249 121.919 22.249C118.121 22.249 115.309 19.5911 115.309 16.0001ZM125.699 16.0001C125.699 13.7037 124.078 12.1337 121.919 12.1337C119.76 12.1337 118.139 13.7037 118.139 16.0001C118.139 18.2965 119.76 19.8665 121.919 19.8665C124.078 19.8665 125.699 18.2965 125.699 16.0001Z" fill="#3D3838"/>
<path d="M134.574 20.8512L135.524 18.7441C136.543 19.4878 138.061 20.0042 139.511 20.0042C141.167 20.0042 141.842 19.4499 141.842 18.7097C141.842 16.4477 134.815 18.0004 134.815 13.5143C134.815 11.4589 136.471 9.75122 139.907 9.75122C141.425 9.75122 142.978 10.1127 144.1 10.822L143.236 12.9462C142.114 12.3093 140.957 11.996 139.886 11.996C138.23 11.996 137.59 12.6157 137.59 13.3766C137.59 15.6042 144.617 14.0686 144.617 18.5031C144.617 20.5241 142.943 22.249 139.49 22.249C137.576 22.249 135.641 21.6809 134.57 20.8512H134.574Z" fill="#3D3838"/>
<path d="M157.008 14.344C157.008 17.0364 154.987 18.7131 151.761 18.7131H149.327V22.0458H146.531V9.95776H151.761C154.99 9.95776 157.008 11.631 157.008 14.344ZM154.175 14.344C154.175 13.0151 153.31 12.237 151.603 12.237H149.323V16.4304H151.603C153.31 16.4304 154.175 15.6523 154.175 14.3406V14.344Z" fill="#3D3838"/>
<path d="M158.402 16.0001C158.402 12.4091 161.198 9.75122 165.013 9.75122C168.827 9.75122 171.623 12.3919 171.623 16.0001C171.623 19.6083 168.81 22.249 165.013 22.249C161.215 22.249 158.402 19.5911 158.402 16.0001ZM168.793 16.0001C168.793 13.7037 167.171 12.1337 165.013 12.1337C162.854 12.1337 161.232 13.7037 161.232 16.0001C161.232 18.2965 162.854 19.8665 165.013 19.8665C167.171 19.8665 168.793 18.2965 168.793 16.0001Z" fill="#3D3838"/>
<path d="M176.058 12.237H172.191V9.95776H182.72V12.237H178.853V22.0424H176.058V12.237Z" fill="#3D3838"/>
<path d="M15.5 31.5C11.3582 31.5 7.46768 29.8887 4.5412 26.9588C1.61128 24.0323 0 20.1418 0 16C0 11.8582 1.61128 7.96768 4.5412 5.0412C7.47112 2.11473 11.3616 0.5 15.5 0.5C18.2371 0.5 20.926 1.22301 23.281 2.58985C25.271 3.74667 27.0131 5.36484 28.3111 7.26877C28.528 7.58896 28.5968 7.98834 28.4935 8.36362C27.9151 10.4672 25.9871 11.9374 23.8043 11.9374C23.0606 11.9374 22.3479 11.7721 21.68 11.4519C21.5148 11.3727 21.3702 11.2591 21.2497 11.1179C20.8675 10.6669 20.4302 10.2607 19.9517 9.90948C18.6537 8.95924 17.1147 8.45657 15.5 8.45657C11.341 8.45657 7.95657 11.841 7.95657 16C7.95657 20.159 11.341 23.5434 15.5 23.5434C17.1147 23.5434 18.6537 23.0408 19.9517 22.0905C20.4302 21.7393 20.8709 21.3296 21.2531 20.8786C21.7248 20.3243 22.558 20.2554 23.1123 20.7271C23.6666 21.1988 23.7354 22.032 23.2638 22.5863C22.7473 23.1957 22.1551 23.7466 21.5079 24.2182C19.7554 25.5024 17.6759 26.1807 15.5 26.1807C9.8846 26.1807 5.31586 21.6119 5.31586 15.9966C5.31586 10.3812 9.8846 5.8193 15.5 5.8193C17.6794 5.8193 19.7589 6.49756 21.5113 7.78176C22.0691 8.19147 22.5855 8.65626 23.0503 9.16926C23.2913 9.25533 23.5426 9.30009 23.8043 9.30009C24.6065 9.30009 25.333 8.86628 25.7254 8.19836C24.6995 6.85906 23.4084 5.71946 21.9555 4.8725C20.0033 3.73978 17.7723 3.14072 15.5034 3.14072C12.0674 3.14072 8.83796 4.48001 6.4107 6.90726C3.98001 9.33796 2.64416 12.5674 2.64416 16C2.64416 19.4326 3.98345 22.6655 6.4107 25.0927C8.8414 27.5234 12.0709 28.8593 15.5034 28.8593C17.7758 28.8593 20.0068 28.2602 21.9589 27.1241C23.6115 26.1635 25.0575 24.8173 26.1352 23.237C26.5449 22.6345 27.3677 22.4796 27.9702 22.8927C28.5727 23.3024 28.7277 24.1253 28.3145 24.7278C27.0131 26.6317 25.2744 28.2499 23.2844 29.4067C20.9295 30.7735 18.2406 31.5 15.5034 31.5H15.5Z" fill="#3D3838"/>
<path d="M19.0455 16.0001C19.0455 17.9591 17.4583 19.5463 15.4993 19.5463C13.5403 19.5463 11.9531 17.9591 11.9531 16.0001C11.9531 14.041 13.5403 12.4539 15.4993 12.4539C17.4583 12.4539 19.0455 14.041 19.0455 16.0001Z" fill="#3D3838"/>
<rect x="189.52" y="7.5" width="31" height="17" rx="3" fill="url(#paint0_linear_1988_10387)"/>
<path d="M197.879 16.1748H196.077L196.067 15.418H197.703C197.973 15.418 198.209 15.3724 198.411 15.2812C198.613 15.1901 198.769 15.0599 198.88 14.8906C198.994 14.7181 199.051 14.513 199.051 14.2754C199.051 14.015 199 13.8034 198.899 13.6406C198.802 13.4746 198.65 13.3542 198.445 13.2793C198.243 13.2012 197.986 13.1621 197.674 13.1621H196.287V19.5H195.345V12.3906H197.674C198.038 12.3906 198.364 12.4281 198.65 12.5029C198.937 12.5745 199.179 12.6885 199.378 12.8447C199.58 12.9977 199.733 13.193 199.837 13.4307C199.941 13.6683 199.993 13.9531 199.993 14.2852C199.993 14.5781 199.918 14.8434 199.769 15.0811C199.619 15.3154 199.41 15.5075 199.144 15.6572C198.88 15.807 198.571 15.903 198.216 15.9453L197.879 16.1748ZM197.835 19.5H195.706L196.238 18.7334H197.835C198.134 18.7334 198.388 18.6813 198.597 18.5771C198.808 18.473 198.969 18.3265 199.08 18.1377C199.191 17.9456 199.246 17.7194 199.246 17.459C199.246 17.1953 199.199 16.9674 199.104 16.7754C199.01 16.5833 198.862 16.4352 198.66 16.3311C198.458 16.2269 198.198 16.1748 197.879 16.1748H196.536L196.546 15.418H198.382L198.582 15.6914C198.924 15.7207 199.214 15.8184 199.451 15.9844C199.689 16.1471 199.869 16.3555 199.993 16.6094C200.12 16.8633 200.184 17.1432 200.184 17.4492C200.184 17.8919 200.086 18.2663 199.891 18.5723C199.699 18.875 199.427 19.1061 199.075 19.2656C198.724 19.4219 198.31 19.5 197.835 19.5ZM203.631 19.5977C203.263 19.5977 202.929 19.5358 202.63 19.4121C202.334 19.2852 202.078 19.1077 201.863 18.8799C201.652 18.652 201.489 18.3818 201.375 18.0693C201.261 17.7568 201.204 17.415 201.204 17.0439V16.8389C201.204 16.4092 201.268 16.0267 201.395 15.6914C201.521 15.3529 201.694 15.0664 201.912 14.832C202.13 14.5977 202.378 14.4202 202.654 14.2998C202.931 14.1794 203.217 14.1191 203.514 14.1191C203.891 14.1191 204.217 14.1842 204.49 14.3145C204.767 14.4447 204.993 14.627 205.169 14.8613C205.345 15.0924 205.475 15.3659 205.56 15.6816C205.644 15.9941 205.687 16.3359 205.687 16.707V17.1123H201.741V16.375H204.783V16.3066C204.77 16.0723 204.721 15.8444 204.637 15.623C204.555 15.4017 204.425 15.2194 204.246 15.0762C204.067 14.9329 203.823 14.8613 203.514 14.8613C203.309 14.8613 203.12 14.9053 202.947 14.9932C202.775 15.0778 202.627 15.2048 202.503 15.374C202.379 15.5433 202.283 15.75 202.215 15.9941C202.146 16.2383 202.112 16.5199 202.112 16.8389V17.0439C202.112 17.2946 202.146 17.5306 202.215 17.752C202.286 17.9701 202.389 18.1621 202.522 18.3281C202.659 18.4941 202.824 18.6243 203.016 18.7188C203.211 18.8132 203.432 18.8604 203.68 18.8604C203.999 18.8604 204.269 18.7952 204.49 18.665C204.712 18.5348 204.905 18.3607 205.071 18.1426L205.618 18.5771C205.504 18.7497 205.359 18.9141 205.184 19.0703C205.008 19.2266 204.791 19.3535 204.534 19.4512C204.28 19.5488 203.979 19.5977 203.631 19.5977ZM208.953 14.2168V14.9102H206.097V14.2168H208.953ZM207.063 12.9326H207.967V18.1914C207.967 18.3704 207.994 18.5055 208.05 18.5967C208.105 18.6878 208.177 18.748 208.265 18.7773C208.353 18.8066 208.447 18.8213 208.548 18.8213C208.623 18.8213 208.701 18.8148 208.782 18.8018C208.867 18.7855 208.93 18.7725 208.973 18.7627L208.978 19.5C208.906 19.5228 208.812 19.5439 208.694 19.5635C208.58 19.5863 208.442 19.5977 208.279 19.5977C208.058 19.5977 207.854 19.5537 207.669 19.4658C207.483 19.3779 207.335 19.2314 207.225 19.0264C207.117 18.818 207.063 18.5381 207.063 18.1865V12.9326ZM213.128 18.5967V15.877C213.128 15.6686 213.086 15.488 213.001 15.335C212.92 15.1787 212.796 15.0583 212.63 14.9736C212.464 14.889 212.259 14.8467 212.015 14.8467C211.787 14.8467 211.587 14.8857 211.414 14.9639C211.245 15.042 211.111 15.1445 211.014 15.2715C210.919 15.3984 210.872 15.5352 210.872 15.6816H209.969C209.969 15.4928 210.018 15.3057 210.115 15.1201C210.213 14.9346 210.353 14.7669 210.535 14.6172C210.721 14.4642 210.942 14.3438 211.199 14.2559C211.46 14.1647 211.749 14.1191 212.068 14.1191C212.452 14.1191 212.791 14.1842 213.084 14.3145C213.38 14.4447 213.611 14.6416 213.777 14.9053C213.947 15.1657 214.031 15.4928 214.031 15.8867V18.3477C214.031 18.5234 214.046 18.7106 214.075 18.9092C214.108 19.1077 214.155 19.2786 214.217 19.4219V19.5H213.274C213.229 19.3958 213.193 19.2575 213.167 19.085C213.141 18.9092 213.128 18.7464 213.128 18.5967ZM213.284 16.2969L213.294 16.9316H212.381C212.124 16.9316 211.894 16.9528 211.692 16.9951C211.491 17.0342 211.321 17.0944 211.185 17.1758C211.048 17.2572 210.944 17.3597 210.872 17.4834C210.8 17.6038 210.765 17.7454 210.765 17.9082C210.765 18.0742 210.802 18.2256 210.877 18.3623C210.952 18.499 211.064 18.6081 211.214 18.6895C211.367 18.7676 211.554 18.8066 211.775 18.8066C212.052 18.8066 212.296 18.748 212.508 18.6309C212.719 18.5137 212.887 18.3704 213.011 18.2012C213.138 18.0319 213.206 17.8675 213.216 17.708L213.602 18.1426C213.579 18.2793 213.517 18.4307 213.416 18.5967C213.315 18.7627 213.18 18.9222 213.011 19.0752C212.845 19.2249 212.646 19.3503 212.415 19.4512C212.187 19.5488 211.93 19.5977 211.644 19.5977C211.285 19.5977 210.971 19.5277 210.701 19.3877C210.434 19.2477 210.226 19.0605 210.076 18.8262C209.93 18.5885 209.856 18.3232 209.856 18.0303C209.856 17.7471 209.912 17.498 210.022 17.2832C210.133 17.0651 210.293 16.8844 210.501 16.7412C210.709 16.5947 210.96 16.484 211.253 16.4092C211.546 16.3343 211.873 16.2969 212.234 16.2969H213.284Z" fill="white"/>
<defs>
<linearGradient id="paint0_linear_1988_10387" x1="189.52" y1="17.0625" x2="220.52" y2="17.0625" gradientUnits="userSpaceOnUse">
<stop stop-color="#5AD7D7"/>
<stop offset="0.348958" stop-color="#6CBBEE"/>
<stop offset="0.692708" stop-color="#95B3E7"/>
<stop offset="1" stop-color="#D8B3FA"/>
</linearGradient>
</defs>
</svg>
